<?xml version="1.0" standalone="no"?>
<!DOCTYPE svg PUBLIC "-//W3C//DTD SVG 20010904//EN"
 "http://www.w3.org/TR/2001/REC-SVG-20010904/DTD/svg10.dtd">
<svg version="1.0" xmlns="http://www.w3.org/2000/svg"
 width="711.000000pt" height="708.000000pt" viewBox="0 0 711.000000 708.000000"
 preserveAspectRatio="xMidYMid meet">

<g transform="translate(0.000000,708.000000) scale(0.100000,-0.100000)"
fill="#000000" stroke="none">
<path d="M1936 6198 c-21 -29 -20 -53 3 -119 55 -162 390 -763 641 -1150 38
-59 40 -65 24 -76 -33 -24 -119 -15 -217 22 -63 25 -104 35 -132 33 l-40 -3
-3 -48 c-5 -74 22 -139 85 -208 31 -33 76 -71 100 -86 44 -25 44 -25 27 -51
-32 -49 -469 -557 -509 -592 -99 -86 -237 -235 -288 -312 -92 -138 -132 -294
-108 -423 22 -117 126 -296 209 -358 109 -83 219 -108 394 -89 188 21 465 88
547 131 17 10 40 5 124 -24 93 -31 115 -35 208 -35 111 0 206 12 270 34 22 8
41 11 43 7 2 -3 -7 -69 -20 -146 -40 -235 -91 -584 -135 -920 -63 -481 -58
-607 31 -745 41 -63 85 -102 163 -142 220 -111 461 -87 798 82 538 270 981
563 1129 747 112 139 147 250 120 385 l-12 63 28 20 c75 53 124 109 163 188
39 77 42 89 47 187 3 58 2 146 -4 195 -9 84 -8 94 15 148 35 85 58 211 58 317
0 217 -69 485 -155 600 -38 51 -40 57 -40 126 0 39 -9 118 -21 175 -60 305
-140 439 -325 545 -67 39 -67 39 -86 107 -51 188 -171 363 -316 460 -98 66
-199 97 -356 111 l-130 11 -23 59 c-35 85 -86 160 -127 186 -31 19 -48 22
-101 18 -80 -5 -124 -33 -208 -133 -32 -39 -64 -71 -71 -73 -7 -2 -45 17 -84
41 -115 71 -193 92 -343 92 l-126 0 -86 -43 c-51 -25 -96 -55 -109 -73 -12
-16 -27 -29 -34 -29 -7 0 -91 71 -186 158 -259 235 -575 514 -648 573 -100 81
-156 98 -184 57z m275 -235 c43 -38 100 -85 126 -107 53 -42 169 -148 362
-328 70 -64 148 -133 174 -153 55 -42 55 -36 6 -188 -30 -92 -59 -150 -117
-230 -53 -74 -66 -76 -99 -20 -15 27 -63 104 -107 173 -139 220 -356 590 -356
607 0 4 -20 47 -46 95 -25 49 -42 93 -38 100 4 6 3 8 -3 5 -6 -4 -15 5 -22 20
-10 22 -9 30 11 59 13 19 25 34 27 34 1 0 39 -30 82 -67z m1886 -435 c62 -66
113 -205 113 -313 0 -106 -49 -220 -129 -302 -49 -50 -163 -128 -211 -144 -35
-13 -48 -45 -26 -67 14 -14 19 -14 58 4 23 10 66 33 95 51 l53 32 49 -39 c64
-50 147 -135 181 -185 174 -254 197 -597 53 -823 -68 -107 -184 -195 -273
-208 -66 -9 -90 -27 -90 -70 0 -116 197 -136 436 -44 l74 28 0 -22 c0 -72 -90
-266 -146 -315 -34 -30 -89 -51 -134 -51 -41 1 -101 34 -168 94 -65 58 -90 67
-116 40 -30 -30 -13 -152 36 -247 39 -77 133 -148 238 -178 25 -7 49 -15 53
-19 4 -4 -11 -29 -33 -56 -92 -110 -144 -267 -122 -363 30 -132 130 -262 249
-324 38 -19 79 -38 93 -42 14 -4 56 -37 94 -72 81 -74 203 -139 289 -153 109
-17 276 19 323 71 20 23 22 66 2 85 -8 8 -41 22 -73 30 -105 28 -194 83 -215
134 -15 37 3 71 52 96 27 14 47 15 133 8 55 -5 142 -9 192 -9 107 1 102 6 110
-108 6 -75 5 -80 -32 -155 -31 -62 -58 -97 -144 -183 -89 -88 -142 -129 -326
-251 -396 -263 -787 -470 -990 -524 -82 -21 -265 -30 -337 -15 -180 38 -293
160 -319 347 -10 69 -8 108 15 304 37 307 107 792 160 1114 25 147 43 273 39
281 -7 20 -47 19 -64 -1 -39 -47 -182 -84 -322 -84 -90 0 -178 18 -247 49 -57
26 -100 26 -150 1 -38 -19 -200 -70 -225 -70 -8 0 -14 29 -19 91 -21 276 -136
592 -310 852 l-66 99 83 96 c46 53 162 190 259 303 l176 206 68 -14 c98 -21
254 -12 368 22 231 67 389 190 533 413 53 82 73 100 54 49 -7 -17 -6 -30 3
-42 27 -37 47 -13 105 125 68 160 98 221 158 315 82 127 149 185 219 185 32 0
46 -6 71 -32z m-2095 -1764 c109 -160 214 -394 261 -580 23 -93 55 -330 45
-339 -14 -14 -188 -38 -278 -38 -87 -1 -115 3 -165 23 -141 55 -284 276 -285
440 0 106 50 226 150 358 65 87 196 215 214 209 6 -2 32 -34 58 -73z"/>
<path d="M2965 4328 c-3 -13 -6 -54 -7 -93 l-3 -69 -32 -7 c-31 -6 -35 -3 -83
63 -40 55 -55 69 -73 66 -36 -5 -32 -40 14 -106 l41 -60 -27 -36 c-15 -20 -31
-36 -35 -36 -4 0 -28 11 -51 25 -53 30 -65 31 -79 6 -15 -29 -5 -43 55 -76 50
-27 55 -32 55 -63 0 -61 23 -115 70 -163 124 -128 335 -68 379 107 25 99 -36
223 -124 255 l-34 13 -3 95 -3 96 -27 3 c-22 3 -28 -2 -33 -20z m-20 -293 c14
-13 25 -33 25 -45 0 -26 -43 -70 -68 -70 -33 0 -72 38 -72 71 0 63 70 90 115
44z"/>
<path d="M1770 3313 c-29 -11 -50 -36 -50 -62 0 -35 13 -52 52 -70 23 -12 34
-25 38 -45 7 -43 28 -43 45 -2 41 97 -11 206 -85 179z"/>
</g>
</svg>
